<?xml version="1.0" encoding="utf-8"?>
<!-- Generator: Adobe Illustrator 25.2.3, SVG Export Plug-In . SVG Version: 6.00 Build 0)  -->
<svg version="1.1" id="Layer_1" xmlns="http://www.w3.org/2000/svg" xmlns:xlink="http://www.w3.org/1999/xlink" x="0px" y="0px"
	 viewBox="0 0 563.74 129.05" enable-background="new 0 0 563.74 129.05" xml:space="preserve">
<g>
	<text transform="matrix(1 0 0 1 132.4508 72.3429)" fill="#01385E" font-family="'DINNextLTW23-Bold'" font-size="40.5951px">Junior-innovators.com</text>
	<g>
		<path fill="#A2141D" d="M88.42,91.63c14.95-14.95,14.95-39.27,0-54.21c-14.95-14.95-39.27-14.95-54.22,0
			c-14.95,14.95-14.95,39.27,0,54.21C49.16,106.58,73.48,106.58,88.42,91.63"/>
		<g>
			<path fill="#FFFFFF" d="M50.2,78.44c2-0.92,4.09-1.58,6.26-2.04c0.23-0.05,0.43-0.09,0.62-0.12c1.29-0.25,2.47-0.41,3.95-0.48
				V65.55H48.34C48.43,70.15,49.07,74.55,50.2,78.44"/>
			<path fill="#FFFFFF" d="M75.09,48.42c0.26-0.13,0.51-0.26,0.77-0.4c0.16-0.09,0.34-0.18,0.53-0.29c1.52-0.86,2.96-1.88,4.3-3.02
				c-3.2-3.01-7.01-5.17-11.17-6.35c1.31,1.39,2.53,3.16,3.6,5.28C73.87,45.12,74.53,46.72,75.09,48.42"/>
			<path fill="#FFFFFF" d="M58.72,37.55c-2.34,1.2-4.5,3.65-6.27,7.18c-0.61,1.22-1.16,2.55-1.64,3.94c1.91,0.91,3.92,1.6,6,2.04
				c0.19,0.04,0.38,0.08,0.59,0.13c1.2,0.23,2.34,0.38,3.63,0.46V37.36c-0.18,0-0.14,0-0.21,0.01
				C60.12,37.4,59.41,37.46,58.72,37.55"/>
			<path fill="#FFFFFF" d="M56.8,78.34c-2.07,0.45-4.08,1.13-6,2.04c0.48,1.39,1.03,2.71,1.65,3.93c1.77,3.53,3.93,5.98,6.27,7.18
				c0.69,0.09,1.39,0.15,2.1,0.18c0.07,0,0.02,0,0.21,0.01V77.76c-1.29,0.08-2.44,0.23-3.63,0.46C57.18,78.26,56.99,78.3,56.8,78.34
				"/>
			<path fill="#FFFFFF" d="M56.45,52.65c-2.16-0.46-4.26-1.16-6.26-2.08c-1.14,3.92-1.78,8.36-1.86,12.96h12.69V53.25
				c-1.47-0.08-2.66-0.23-3.95-0.48C56.89,52.74,56.68,52.7,56.45,52.65"/>
			<path fill="#FFFFFF" d="M48.66,49.8c-0.34-0.18-0.68-0.37-1.01-0.57c-0.18-0.1-0.36-0.21-0.55-0.33
				c-1.58-0.97-3.07-2.1-4.45-3.36c-4.76,4.87-7.48,11.18-7.73,17.99h11.75C46.76,58.55,47.44,53.95,48.66,49.8"/>
			<path fill="#FFFFFF" d="M49.28,81.17c-0.23,0.13-0.47,0.26-0.7,0.4c-0.17,0.11-0.34,0.21-0.52,0.31c-1.42,0.88-2.76,1.89-4,3.02
				c2.99,2.65,6.59,4.65,10.6,5.78c-1.31-1.39-2.53-3.16-3.6-5.28C50.39,84.08,49.8,82.67,49.28,81.17"/>
			<path fill="#FFFFFF" d="M47.66,79.79c0.33-0.19,0.67-0.4,1.01-0.58c-1.21-4.13-1.89-8.69-1.99-13.66H34.93
				c0.27,6.99,3.13,13.26,7.69,17.94c1.39-1.27,2.9-2.38,4.48-3.36C47.29,80.02,47.48,79.89,47.66,79.79"/>
			<path fill="#FFFFFF" d="M48.58,47.48c0.23,0.13,0.46,0.27,0.69,0.4c0.52-1.5,1.12-2.91,1.78-4.23c1.07-2.12,2.28-3.89,3.6-5.28
				c-3.9,1.11-7.5,3.08-10.57,5.8c1.23,1.11,2.56,2.12,3.97,2.99C48.24,47.27,48.41,47.38,48.58,47.48"/>
			<path fill="#FFFFFF" d="M75.68,78.66c0.35,0.17,0.7,0.39,1.05,0.57c0.2,0.11,0.38,0.21,0.56,0.31c1.71,0.96,3.33,2.06,4.83,3.35
				c4.24-4.61,6.87-10.54,7.13-17.35H77.5C77.42,70.34,76.78,74.68,75.68,78.66"/>
			<path fill="#FFFFFF" d="M67.43,50.93c2.11-0.36,4.16-0.96,6.11-1.79c-0.52-1.57-1.13-3.05-1.81-4.41
				c-1.77-3.53-3.95-5.98-6.29-7.18c-0.69-0.09-1.41-0.15-2.11-0.18c-0.08,0-0.28,0-0.28-0.01v13.96c1.29-0.02,2.54-0.11,3.76-0.29
				C67.02,51,67.25,50.96,67.43,50.93"/>
			<path fill="#FFFFFF" d="M75.86,81.02c-0.26-0.13-0.51-0.27-0.77-0.4c-0.56,1.7-1.22,3.3-1.97,4.77c-1.08,2.13-2.29,3.89-3.6,5.28
				c4.28-1.21,8.09-3.41,11.2-6.33c-1.35-1.15-2.8-2.17-4.34-3.04C76.19,81.2,76.02,81.11,75.86,81.02"/>
			<path fill="#FFFFFF" d="M77.28,49.5c-0.18,0.1-0.36,0.2-0.56,0.3c-0.34,0.19-0.69,0.37-1.05,0.54c1.12,4.02,1.75,8.58,1.83,13.18
				h11.75c-0.23-6.44-2.76-12.61-7.17-17.4C80.59,47.41,78.98,48.55,77.28,49.5"/>
			<path fill="#FFFFFF" d="M74.11,51.04c-2.05,0.85-4.2,1.47-6.41,1.84c-0.18,0.03-0.4,0.07-0.64,0.1c-1.31,0.19-2.73,0.3-4.02,0.32
				v10.23h12.79C75.76,59.11,75.16,54.84,74.11,51.04"/>
			<path fill="#FFFFFF" d="M67.73,76.15c2.2,0.37,4.34,0.96,6.4,1.82c1.04-3.76,1.63-8,1.72-12.41H63.05v10.2
				c1.29,0.02,2.71,0.11,4.02,0.3C67.31,76.09,67.54,76.12,67.73,76.15"/>
			<path fill="#FFFFFF" d="M73.53,79.91c-1.96-0.83-4.01-1.44-6.12-1.79c-0.19-0.03-0.4-0.07-0.61-0.1
				c-1.22-0.18-2.47-0.27-3.76-0.29v13.96c0,0,0.2,0,0.28-0.01c0.7-0.03,1.42-0.09,2.11-0.18c2.34-1.2,4.51-3.65,6.28-7.18
				C72.41,82.96,73.01,81.48,73.53,79.91"/>
		</g>
	</g>
</g>
</svg>
