<?xml version="1.0" encoding="utf-8"?>
<!-- Generator: Adobe Illustrator 25.2.3, SVG Export Plug-In . SVG Version: 6.00 Build 0)  -->
<svg version="1.1" id="Layer_1" xmlns="http://www.w3.org/2000/svg" xmlns:xlink="http://www.w3.org/1999/xlink" x="0px" y="0px"
	 viewBox="0 0 616.85 129.05" enable-background="new 0 0 616.85 129.05" xml:space="preserve">
<g>
	<g>
		<path fill="#A2141D" d="M102.34,91.63c14.95-14.95,14.95-39.27,0-54.22c-14.95-14.95-39.27-14.95-54.22,0
			c-14.95,14.95-14.95,39.27,0,54.22C63.07,106.58,87.39,106.58,102.34,91.63"/>
		<path fill="#FFFFFF" d="M78.72,54.83v-3.88c0-1.88,1.26-2.32,2.14-2.32h5.44v-8.3l-7.49-0.03c-8.31,0-10.19,6.19-10.19,10.16v4.37
			h-4.81v5.86v3.84h4.85v24.22h9.68V64.52h7.19l0.35-3.81l0.54-5.89H78.72z"/>
	</g>
	<g>
		<path fill="#01385E" d="M265.41,55.25c-0.27,0-0.41-0.14-0.41-0.41v-4.1c0-0.27,0.14-0.41,0.41-0.41h0.89
			c1.11,0,1.9-0.28,2.37-0.85c0.47-0.57,0.71-1.43,0.71-2.6V30.25c0-0.27,0.14-0.41,0.41-0.41h4.95c0.27,0,0.41,0.14,0.41,0.41
			v16.85c0,2.79-0.65,4.84-1.95,6.17c-1.3,1.33-3.27,1.99-5.93,1.99H265.41z M279.9,19.73c0-0.27,0.14-0.41,0.41-0.41h4.91
			c0.27,0,0.41,0.14,0.41,0.41v20.14c0,0.81,0.16,1.37,0.47,1.68c0.31,0.31,0.8,0.47,1.48,0.47h1.1c0.54,0,0.95,0.2,1.22,0.59
			c0.27,0.39,0.41,1.05,0.41,1.97c0,0.97-0.13,1.61-0.39,1.91c-0.26,0.3-0.67,0.45-1.24,0.45h-4.02c-1.71,0-2.92-0.41-3.65-1.24
			c-0.73-0.83-1.1-2.12-1.1-3.88V19.73z M288.67,46.93c-0.54,0-0.93-0.16-1.16-0.47c-0.23-0.31-0.34-0.91-0.34-1.81
			c0-0.95,0.11-1.62,0.32-2.03c0.22-0.41,0.61-0.61,1.18-0.61h5.24c0.54,0,0.95,0.2,1.22,0.59c0.27,0.39,0.41,1.04,0.41,1.93
			c0,1-0.13,1.65-0.39,1.95c-0.26,0.3-0.67,0.45-1.24,0.45H288.67z M293.9,46.93c-0.54,0-0.93-0.16-1.16-0.47
			c-0.23-0.31-0.34-0.91-0.34-1.81c0-0.95,0.11-1.62,0.32-2.03c0.22-0.41,0.61-0.61,1.18-0.61h5.24c0.54,0,0.95,0.2,1.22,0.59
			c0.27,0.39,0.41,1.04,0.41,1.93c0,1-0.13,1.65-0.39,1.95c-0.26,0.3-0.67,0.45-1.24,0.45H293.9z M299.14,46.93
			c-0.54,0-0.93-0.16-1.16-0.47c-0.23-0.31-0.34-0.91-0.34-1.81c0-0.95,0.11-1.62,0.32-2.03c0.22-0.41,0.61-0.61,1.18-0.61h5.24
			c0.54,0,0.95,0.2,1.22,0.59c0.27,0.39,0.41,1.04,0.41,1.93c0,1-0.13,1.65-0.39,1.95c-0.26,0.3-0.67,0.45-1.24,0.45H299.14z
			 M304.38,46.93c-0.54,0-0.93-0.16-1.16-0.47c-0.23-0.31-0.34-0.91-0.34-1.81c0-0.95,0.11-1.62,0.32-2.03
			c0.22-0.41,0.61-0.61,1.18-0.61h5.24c0.54,0,0.95,0.2,1.22,0.59c0.27,0.39,0.41,1.04,0.41,1.93c0,1-0.13,1.65-0.39,1.95
			c-0.26,0.3-0.67,0.45-1.24,0.45H304.38z M309.61,46.93c-0.54,0-0.93-0.16-1.16-0.47c-0.23-0.31-0.34-0.91-0.34-1.81
			c0-0.95,0.11-1.62,0.32-2.03c0.22-0.41,0.61-0.61,1.18-0.61h5.24c0.54,0,0.95,0.2,1.22,0.59c0.27,0.39,0.41,1.04,0.41,1.93
			c0,1-0.13,1.65-0.39,1.95c-0.26,0.3-0.67,0.45-1.24,0.45H309.61z M314.85,46.93c-0.54,0-0.93-0.16-1.16-0.47
			c-0.23-0.31-0.34-0.91-0.34-1.81c0-0.95,0.11-1.62,0.32-2.03c0.22-0.41,0.61-0.61,1.18-0.61h5.24c0.54,0,0.95,0.2,1.22,0.59
			c0.27,0.39,0.41,1.04,0.41,1.93c0,1-0.13,1.65-0.39,1.95c-0.26,0.3-0.67,0.45-1.24,0.45H314.85z M320.09,46.93
			c-0.54,0-0.93-0.16-1.16-0.47c-0.23-0.31-0.34-0.91-0.34-1.81c0-0.95,0.11-1.62,0.32-2.03c0.22-0.41,0.61-0.61,1.18-0.61h5.24
			c0.54,0,0.95,0.2,1.22,0.59c0.27,0.39,0.41,1.04,0.41,1.93c0,1-0.13,1.65-0.39,1.95c-0.26,0.3-0.67,0.45-1.24,0.45H320.09z
			 M336.98,29.15c1.65,0,3.08,0.16,4.28,0.47c1.2,0.31,2.2,0.75,2.98,1.32c0.78,0.57,1.36,1.24,1.73,2.01
			c0.37,0.77,0.55,1.6,0.55,2.5c0,0.73-0.12,1.42-0.35,2.07c-0.23,0.65-0.53,1.25-0.91,1.81c-0.38,0.56-0.81,1.06-1.28,1.5
			c-0.47,0.45-0.94,0.83-1.4,1.16c0.3,0.03,0.6,0.04,0.91,0.04c0.31,0,0.63,0,0.95,0h4.26c0.54,0,0.93,0.18,1.18,0.55
			c0.24,0.37,0.37,0.98,0.37,1.85c0,1-0.14,1.67-0.43,2.01c-0.28,0.34-0.66,0.51-1.12,0.51h-6.45c-0.97,0-1.9-0.09-2.78-0.26
			c-0.88-0.18-1.71-0.51-2.5-0.99c-0.89,0.49-1.84,0.82-2.84,0.99c-1,0.18-1.89,0.26-2.68,0.26h-6.13c-0.54,0-0.93-0.15-1.18-0.45
			c-0.24-0.3-0.37-0.93-0.37-1.91c0-0.76,0.1-1.37,0.3-1.85c0.2-0.47,0.62-0.71,1.24-0.71h4.26c0.46,0,0.95-0.01,1.48-0.04
			c0.53-0.03,1.04-0.11,1.52-0.24c-0.38-1.14-0.99-2.16-1.83-3.06c-0.84-0.91-1.76-1.71-2.76-2.42c-0.22-0.16-0.37-0.36-0.45-0.59
			c-0.08-0.23-0.12-0.55-0.12-0.95v-2.64c0-0.35,0.28-0.7,0.85-1.04c0.57-0.34,1.31-0.65,2.21-0.93c0.91-0.28,1.93-0.51,3.06-0.69
			C334.7,29.24,335.84,29.15,336.98,29.15z M337.42,41.04c0.89-0.54,1.64-1.2,2.25-1.99c0.61-0.78,0.91-1.61,0.91-2.48
			c0-0.87-0.32-1.5-0.95-1.91c-0.64-0.41-1.52-0.61-2.66-0.61c-0.92,0-1.73,0.09-2.44,0.26c-0.7,0.18-1.18,0.33-1.42,0.47
			c1.11,0.76,2.03,1.7,2.76,2.82C336.61,38.74,337.12,39.88,337.42,41.04z M334.46,25.74c-0.27,0-0.41-0.14-0.41-0.41v-3.98
			c0-0.27,0.14-0.41,0.41-0.41h5.03c0.27,0,0.41,0.14,0.41,0.41v3.98c0,0.27-0.14,0.41-0.41,0.41H334.46z M352,29.92
			c0-0.27,0.14-0.41,0.41-0.41h4.91c0.27,0,0.41,0.14,0.41,0.41v1.22c1.24-0.54,2.6-1.01,4.06-1.4c1.46-0.39,2.99-0.59,4.59-0.59
			c3.3,0,5.81,0.79,7.51,2.35c1.7,1.57,2.56,4.05,2.56,7.43c0,0.16,0,0.32,0,0.49c0,0.16-0.01,0.31-0.04,0.45
			c0.05,0.65,0.35,1.17,0.89,1.56c0.54,0.39,1.29,0.59,2.23,0.59h0.89c0.54,0,0.95,0.19,1.22,0.57c0.27,0.38,0.41,1,0.41,1.87
			c0,1.65-0.54,2.48-1.62,2.48c-1.16,0-2.17-0.17-3.02-0.51c-0.85-0.34-1.52-1.02-2.01-2.05c-0.6,1.03-1.46,1.71-2.58,2.05
			c-1.12,0.34-2.62,0.51-4.49,0.51h-7.83c-0.41,0-0.83-0.01-1.28-0.02c-0.45-0.01-0.87-0.05-1.28-0.1c-0.41-0.05-0.77-0.14-1.1-0.24
			c-0.32-0.11-0.56-0.27-0.69-0.49c-0.46,0.38-0.99,0.62-1.58,0.71c-0.6,0.1-1.34,0.14-2.23,0.14h-3.61c-0.54,0-0.95-0.17-1.22-0.51
			c-0.27-0.34-0.41-0.98-0.41-1.93c0-1.03,0.12-1.7,0.37-2.01c0.24-0.31,0.66-0.47,1.26-0.47h1.62c0.41,0,0.72-0.09,0.95-0.26
			c0.23-0.18,0.39-0.41,0.49-0.71c0.09-0.3,0.16-0.66,0.18-1.1c0.03-0.43,0.04-0.91,0.04-1.42V29.92z M365.27,34.06
			c-1.35,0-2.69,0.19-4,0.57c-1.31,0.38-2.5,0.8-3.55,1.26v4.55c0,0.3-0.01,0.58-0.02,0.83c-0.01,0.26-0.03,0.51-0.06,0.75h8.04
			c1,0,1.82-0.03,2.46-0.08c0.64-0.05,1.13-0.19,1.48-0.41c0.35-0.22,0.59-0.55,0.71-1.01c0.12-0.46,0.18-1.1,0.18-1.91
			c0-0.73-0.08-1.38-0.24-1.95c-0.16-0.57-0.44-1.05-0.83-1.44c-0.39-0.39-0.93-0.68-1.6-0.87
			C367.15,34.16,366.3,34.06,365.27,34.06z M380.41,46.93c-0.54,0-0.95-0.09-1.22-0.28c-0.27-0.19-0.41-0.57-0.41-1.14
			c0-0.32,0.03-0.69,0.1-1.1c0.07-0.41,0.16-0.78,0.28-1.14c0.12-0.35,0.28-0.65,0.49-0.89c0.2-0.24,0.45-0.37,0.75-0.37h1.42
			c0.68,0,1.17-0.16,1.48-0.47c0.31-0.31,0.47-0.87,0.47-1.68V19.73c0-0.27,0.14-0.41,0.41-0.41h4.95c0.27,0,0.41,0.14,0.41,0.41
			v22.08c0,1.76-0.37,3.05-1.1,3.88c-0.73,0.83-1.95,1.24-3.65,1.24H380.41z M400.14,46.52c0,0.27-0.14,0.41-0.41,0.41h-4.91
			c-0.27,0-0.41-0.14-0.41-0.41V19.73c0-0.27,0.14-0.41,0.41-0.41h4.91c0.27,0,0.41,0.14,0.41,0.41V46.52z M428.8,33.62
			c0-0.27,0.14-0.41,0.41-0.41h4.91c0.27,0,0.41,0.14,0.41,0.41v6.21c0.05,0.68,0.35,1.21,0.87,1.6c0.53,0.39,1.26,0.59,2.21,0.59
			h0.77c0.54,0,0.95,0.19,1.22,0.57c0.27,0.38,0.41,1,0.41,1.87c0,1.65-0.54,2.48-1.62,2.48c-0.81,0-1.54-0.07-2.17-0.22
			c-0.64-0.15-1.2-0.49-1.68-1.04v0.37c0,1.7-0.26,3.16-0.79,4.36c-0.53,1.2-1.25,2.19-2.17,2.96c-0.92,0.77-2.01,1.34-3.27,1.7
			c-1.26,0.37-2.61,0.55-4.04,0.55c-1.41,0-2.74-0.18-4-0.55c-1.26-0.37-2.36-0.93-3.31-1.7c-0.95-0.77-1.7-1.77-2.25-3
			c-0.55-1.23-0.83-2.7-0.83-4.4c0-1.35,0.2-2.75,0.59-4.18c0.39-1.43,0.94-2.72,1.64-3.86c0.11-0.16,0.31-0.2,0.61-0.12l4.38,1.42
			c0.14,0.05,0.21,0.13,0.22,0.22c0.01,0.1-0.01,0.2-0.06,0.3c-0.38,0.76-0.73,1.61-1.06,2.56c-0.32,0.95-0.49,2.02-0.49,3.21
			c0,0.95,0.14,1.75,0.41,2.4c0.27,0.65,0.63,1.18,1.08,1.58c0.45,0.41,0.95,0.7,1.5,0.87c0.55,0.18,1.12,0.26,1.68,0.26
			c1.38,0,2.46-0.39,3.25-1.16c0.78-0.77,1.18-2,1.18-3.67V33.62z M422.55,30.12c-0.27,0-0.41-0.14-0.41-0.41v-3.98
			c0-0.27,0.14-0.41,0.41-0.41h5.03c0.27,0,0.41,0.14,0.41,0.41v3.98c0,0.27-0.14,0.41-0.41,0.41H422.55z M438.38,46.93
			c-0.54,0-0.95-0.17-1.22-0.51c-0.27-0.34-0.41-0.94-0.41-1.81c0-1.73,0.54-2.6,1.62-2.6h2.52c0.68,0,1.17-0.16,1.48-0.47
			c0.31-0.31,0.47-0.87,0.47-1.68v-9.62c0-0.27,0.14-0.41,0.41-0.41h4.91c0.27,0,0.41,0.14,0.41,0.41v11.57
			c0,1.76-0.37,3.05-1.1,3.88c-0.73,0.83-1.95,1.24-3.65,1.24H438.38z M439.88,55.25c-0.27,0-0.41-0.14-0.41-0.41v-3.98
			c0-0.27,0.14-0.41,0.41-0.41h4.06c0.27,0,0.41,0.14,0.41,0.41v3.98c0,0.27-0.14,0.41-0.41,0.41H439.88z M446.14,55.25
			c-0.27,0-0.41-0.14-0.41-0.41v-3.98c0-0.27,0.14-0.41,0.41-0.41h4.1c0.27,0,0.41,0.14,0.41,0.41v3.98c0,0.27-0.14,0.41-0.41,0.41
			H446.14z M455.8,30.25c0-0.27,0.14-0.41,0.41-0.41h4.95c0.27,0,0.41,0.14,0.41,0.41v9.58c0.05,0.68,0.34,1.21,0.87,1.6
			c0.53,0.39,1.26,0.59,2.21,0.59h0.89c0.54,0,0.95,0.19,1.22,0.57c0.27,0.38,0.41,1,0.41,1.87c0,1.65-0.54,2.48-1.62,2.48
			c-0.89,0-1.66-0.09-2.31-0.26c-0.65-0.18-1.2-0.55-1.66-1.12v0.65c0,3.09-0.6,5.36-1.79,6.84c-1.19,1.47-3.22,2.21-6.09,2.21
			h-1.87c-0.27,0-0.41-0.14-0.41-0.41v-4.1c0-0.27,0.14-0.41,0.41-0.41h0.89c0.73,0,1.3-0.12,1.7-0.35
			c0.41-0.23,0.71-0.57,0.91-1.01c0.2-0.45,0.33-0.99,0.39-1.64c0.05-0.65,0.08-1.39,0.08-2.23V30.25z M465.54,46.93
			c-0.54,0-0.93-0.16-1.16-0.47c-0.23-0.31-0.34-0.91-0.34-1.81c0-0.95,0.11-1.62,0.32-2.03c0.22-0.41,0.61-0.61,1.18-0.61h5.24
			c0.54,0,0.95,0.2,1.22,0.59c0.27,0.39,0.41,1.04,0.41,1.93c0,1-0.13,1.65-0.39,1.95c-0.26,0.3-0.67,0.45-1.24,0.45H465.54z
			 M470.78,46.93c-0.54,0-0.93-0.16-1.16-0.47c-0.23-0.31-0.34-0.91-0.34-1.81c0-0.95,0.11-1.62,0.32-2.03
			c0.22-0.41,0.61-0.61,1.18-0.61h5.24c0.54,0,0.95,0.2,1.22,0.59c0.27,0.39,0.41,1.04,0.41,1.93c0,1-0.13,1.65-0.39,1.95
			c-0.26,0.3-0.67,0.45-1.24,0.45H470.78z M476.01,46.93c-0.54,0-0.93-0.16-1.16-0.47c-0.23-0.31-0.34-0.91-0.34-1.81
			c0-0.95,0.11-1.62,0.32-2.03c0.22-0.41,0.61-0.61,1.18-0.61h5.24c0.54,0,0.95,0.2,1.22,0.59c0.27,0.39,0.41,1.04,0.41,1.93
			c0,1-0.13,1.65-0.39,1.95c-0.26,0.3-0.67,0.45-1.24,0.45H476.01z M490.71,29.52c1.33,0.05,2.52,0.19,3.57,0.41
			c1.06,0.22,1.95,0.6,2.7,1.16c0.74,0.56,1.32,1.31,1.73,2.25c0.41,0.95,0.61,2.17,0.61,3.65v2.96c0,0.65,0.28,1.16,0.83,1.52
			c0.55,0.37,1.31,0.55,2.25,0.55h0.89c0.54,0,0.95,0.19,1.22,0.57c0.27,0.38,0.41,1,0.41,1.87c0,1.65-0.54,2.48-1.62,2.48
			c-1.14,0-2.11-0.15-2.92-0.45c-0.81-0.3-1.48-0.92-1.99-1.87c-0.49,0.87-1.16,1.47-2.03,1.81c-0.87,0.34-1.92,0.51-3.17,0.51
			h-11.93c-0.54,0-0.95-0.19-1.22-0.57c-0.27-0.38-0.41-1.06-0.41-2.03c0-0.92,0.13-1.54,0.39-1.85c0.26-0.31,0.67-0.47,1.24-0.47
			h9.09c0.65,0,1.18-0.04,1.58-0.12c0.41-0.08,0.72-0.22,0.93-0.43c0.22-0.2,0.36-0.48,0.43-0.83c0.07-0.35,0.1-0.8,0.1-1.34v-1.87
			c0-1.08-0.29-1.87-0.87-2.35c-0.58-0.49-1.51-0.73-2.78-0.73h-6.09c-0.27,0-0.41-0.14-0.41-0.41v-3.33c0-0.19,0.1-0.39,0.3-0.61
			c0.2-0.22,0.37-0.41,0.51-0.57l8.69-10.27c0.16-0.19,0.34-0.23,0.53-0.12l3.37,2.84c0.22,0.16,0.27,0.35,0.16,0.57L490.71,29.52z
			 M507.88,30.25c0-0.27,0.14-0.41,0.41-0.41h4.91c0.27,0,0.41,0.14,0.41,0.41v9.58c0.05,0.68,0.34,1.21,0.87,1.6
			c0.53,0.39,1.26,0.59,2.21,0.59h0.93c0.54,0,0.95,0.19,1.22,0.57c0.27,0.38,0.41,1,0.41,1.87c0,1.65-0.54,2.48-1.62,2.48
			c-1.03,0-1.92-0.12-2.68-0.37c-0.76-0.24-1.39-0.8-1.91-1.66c-0.43,0.87-1.08,1.42-1.93,1.66s-2.02,0.37-3.51,0.37h-4.18
			c-0.54,0-0.95-0.17-1.22-0.51c-0.27-0.34-0.41-0.97-0.41-1.89c0-0.92,0.13-1.57,0.39-1.95c0.26-0.38,0.67-0.57,1.24-0.57h2.52
			c0.87,0,1.41-0.25,1.62-0.75c0.22-0.5,0.32-1.36,0.32-2.58V30.25z M505.53,25.74c-0.27,0-0.41-0.14-0.41-0.41v-3.98
			c0-0.27,0.14-0.41,0.41-0.41h4.06c0.27,0,0.41,0.14,0.41,0.41v3.98c0,0.27-0.14,0.41-0.41,0.41H505.53z M511.78,25.74
			c-0.27,0-0.41-0.14-0.41-0.41v-3.98c0-0.27,0.14-0.41,0.41-0.41h4.1c0.27,0,0.41,0.14,0.41,0.41v3.98c0,0.27-0.14,0.41-0.41,0.41
			H511.78z M526.31,44.9c-0.46,0.84-1.1,1.39-1.91,1.64c-0.81,0.26-1.95,0.39-3.41,0.39h-3.25c-0.54,0-0.95-0.09-1.22-0.26
			c-0.27-0.18-0.41-0.56-0.41-1.16c0-0.35,0.03-0.73,0.08-1.14c0.05-0.41,0.15-0.78,0.28-1.14c0.14-0.35,0.31-0.64,0.53-0.87
			c0.22-0.23,0.49-0.35,0.81-0.35h1.34c0.84,0,1.37-0.24,1.6-0.71c0.23-0.47,0.34-1.32,0.34-2.54v-8.52c0-0.22,0.2-0.34,0.59-0.37
			c0.39-0.03,0.74-0.04,1.04-0.04h3.73c0.27,0,0.41,0.14,0.41,0.41v9.58c0.05,0.68,0.35,1.21,0.87,1.6
			c0.53,0.39,1.26,0.59,2.21,0.59h0.93c0.54,0,0.95,0.19,1.22,0.57c0.27,0.38,0.41,1,0.41,1.87c0,1.65-0.54,2.48-1.62,2.48
			c-1.03,0-1.92-0.12-2.68-0.37C527.46,46.32,526.82,45.77,526.31,44.9z M521.44,55.21c-0.27,0-0.41-0.14-0.41-0.41v-3.98
			c0-0.27,0.14-0.41,0.41-0.41h5.03c0.27,0,0.41,0.14,0.41,0.41v3.98c0,0.27-0.14,0.41-0.41,0.41H521.44z M543.36,47.21
			c-1.43,0-2.75-0.18-3.96-0.55c-1.2-0.37-2.21-1.01-3.02-1.93c-0.3,0.49-0.69,0.88-1.18,1.18c-0.49,0.3-0.99,0.52-1.52,0.67
			c-0.53,0.15-1.05,0.24-1.56,0.28c-0.51,0.04-0.97,0.06-1.38,0.06c-0.54,0-0.95-0.18-1.22-0.53c-0.27-0.35-0.41-0.97-0.41-1.87
			c0-0.92,0.12-1.57,0.37-1.95c0.24-0.38,0.66-0.57,1.26-0.57h1.18c0.62,0,1.18-0.26,1.68-0.77c0.5-0.51,0.78-1.47,0.83-2.88v-0.81
			c0-2.71,0.77-4.78,2.31-6.23c1.54-1.45,3.75-2.17,6.62-2.17c2.73,0,4.91,0.76,6.54,2.29c1.62,1.53,2.44,3.84,2.44,6.92
			c0,0.19-0.01,0.37-0.02,0.55c-0.01,0.18-0.02,0.35-0.02,0.51c0.05,0.89,0.31,1.55,0.77,1.97c0.46,0.42,1.04,0.63,1.75,0.63h1.18
			c0.54,0,0.95,0.19,1.22,0.57c0.27,0.38,0.41,1,0.41,1.87c0,1.65-0.54,2.48-1.62,2.48c-0.49,0-0.99-0.02-1.5-0.06
			c-0.51-0.04-1.01-0.14-1.5-0.3c-0.49-0.16-0.95-0.4-1.38-0.71c-0.43-0.31-0.81-0.74-1.14-1.28c-0.81,0.97-1.83,1.66-3.06,2.05
			C546.17,47.02,544.82,47.21,543.36,47.21z M546.69,38.16c0-2.73-1.11-4.1-3.33-4.1c-2.22,0-3.33,1.37-3.33,4.1
			c0,1.54,0.28,2.62,0.83,3.23c0.55,0.61,1.39,0.91,2.5,0.91c1.14,0,1.98-0.3,2.52-0.91C546.42,40.78,546.69,39.7,546.69,38.16
			L546.69,38.16z M555.94,46.93c-0.54,0-0.95-0.09-1.22-0.28c-0.27-0.19-0.41-0.57-0.41-1.14c0-0.32,0.03-0.69,0.1-1.1
			c0.07-0.41,0.16-0.78,0.28-1.14c0.12-0.35,0.28-0.65,0.49-0.89c0.2-0.24,0.45-0.37,0.75-0.37h1.42c0.68,0,1.17-0.16,1.48-0.47
			c0.31-0.31,0.47-0.87,0.47-1.68V19.73c0-0.27,0.14-0.41,0.41-0.41h4.95c0.27,0,0.41,0.14,0.41,0.41v22.08
			c0,1.76-0.37,3.05-1.1,3.88c-0.73,0.83-1.95,1.24-3.65,1.24H555.94z M575.67,46.52c0,0.27-0.14,0.41-0.41,0.41h-4.91
			c-0.27,0-0.41-0.14-0.41-0.41V19.73c0-0.27,0.14-0.41,0.41-0.41h4.91c0.27,0,0.41,0.14,0.41,0.41V46.52z"/>
		<text transform="matrix(1 0 0 1 263.0981 91.5914)" fill="#01385E" font-family="'DINNextLTW23-Bold'" font-size="40.5951px">Junior Innovators</text>
	</g>
	<g>
		<path fill="#A2141D" d="M207.41,91.63c14.95-14.95,14.95-39.27,0-54.22c-14.95-14.95-39.27-14.95-54.22,0
			c-14.95,14.95-14.95,39.27,0,54.22C168.15,106.58,192.46,106.58,207.41,91.63"/>
		<path fill="#FFFFFF" d="M203.99,52.48c-1.67,0.72-3.48,1.22-5.37,1.44c1.93-1.14,3.41-2.94,4.11-5.09
			c-1.8,1.06-3.8,1.83-5.93,2.24c-1.7-1.79-4.14-2.91-6.82-2.91c-5.16,0-9.34,4.12-9.34,9.2c0,0.72,0.09,1.42,0.24,2.1
			c-7.76-0.39-14.64-4.05-19.25-9.61c-0.8,1.35-1.27,2.94-1.27,4.62c0,3.19,1.65,6,4.16,7.65c-1.53-0.05-2.97-0.47-4.23-1.15v0.11
			c0,1.18,0.22,2.3,0.63,3.34c1.15,2.88,3.72,5.06,6.86,5.68c-0.79,0.21-1.61,0.33-2.46,0.33c-0.6,0-1.19-0.07-1.76-0.18
			c1.2,3.65,4.64,6.31,8.73,6.39c-3.2,2.47-7.22,3.94-11.6,3.94c-0.76,0-1.49-0.04-2.23-0.13c4.13,2.61,9.04,4.13,14.32,4.13
			c14.6,0,23.58-10.11,25.94-20.61c0.42-1.85,0.65-3.73,0.65-5.55c0-0.4-0.01-0.79-0.03-1.19
			C201.15,55.94,202.73,54.32,203.99,52.48"/>
	</g>
</g>
</svg>
