<?xml version="1.0" encoding="utf-8"?>
<!-- Generator: Adobe Illustrator 25.2.3, SVG Export Plug-In . SVG Version: 6.00 Build 0)  -->
<svg version="1.1" id="Layer_1" xmlns="http://www.w3.org/2000/svg" xmlns:xlink="http://www.w3.org/1999/xlink" x="0px" y="0px"
	 viewBox="0 0 420.64 129.39" enable-background="new 0 0 420.64 129.39" xml:space="preserve">
<g>
	<text transform="matrix(1 0 0 1 137.5357 72.5201)" fill="#01385E" font-family="'DINNextLTW23-Bold'" font-size="40.5951px">Ju.innovators</text>
	<path fill="#A2141D" d="M103.26,91.81c14.95-14.95,14.95-39.27,0-54.22c-14.95-14.95-39.27-14.95-54.22,0
		c-14.95,14.95-14.95,39.27,0,54.22C64,106.75,88.32,106.75,103.26,91.81"/>
	<g>
		<g>
			<g>
				<g>
					<path fill="#FFFFFF" d="M89.22,85.82H63.7c-5.28,0-9.58-4.2-9.58-9.37V50.18c0-5.17,4.3-9.37,9.58-9.37h25.52
						c5.28,0,9.58,4.2,9.58,9.37v26.27C98.8,81.62,94.5,85.82,89.22,85.82 M63.7,44.68c-3.16,0-5.72,2.47-5.72,5.51v26.27
						c0,3.04,2.56,5.5,5.72,5.5h25.52c3.15,0,5.72-2.47,5.72-5.5V50.18c0-3.04-2.57-5.51-5.72-5.51H63.7z"/>
				</g>
			</g>
			<g>
				<g>
					<path fill="#FFFFFF" d="M76.46,75c-6.44,0-11.68-5.24-11.68-11.68c0-6.44,5.24-11.68,11.68-11.68
						c6.44,0,11.68,5.23,11.68,11.68C88.14,69.76,82.9,75,76.46,75 M76.46,55.5c-4.31,0-7.82,3.51-7.82,7.82s3.51,7.82,7.82,7.82
						c4.32,0,7.83-3.5,7.83-7.82S80.77,55.5,76.46,55.5"/>
				</g>
			</g>
			<g>
				<path fill="#FFFFFF" d="M91.73,51.05c0,1.51-1.22,2.73-2.73,2.73c-1.51,0-2.74-1.22-2.74-2.73c0-1.5,1.22-2.73,2.74-2.73
					C90.51,48.32,91.73,49.55,91.73,51.05"/>
			</g>
		</g>
	</g>
</g>
</svg>
